<svg width="20" height="20" viewBox="0 0 20 20" fill="none" xmlns="http://www.w3.org/2000/svg">
<path fill-rule="evenodd" clip-rule="evenodd" d="M5.75989 3.90923C5.75989 2.76506 4.86461 1.8336 3.76228 1.8336C2.66113 1.8336 1.76467 2.76506 1.76467 3.90923C1.76467 5.05339 2.66113 5.98486 3.76228 5.98486C4.86461 5.98486 5.75989 5.05339 5.75989 3.90923ZM7.52457 3.90922C7.52457 6.06431 5.83754 7.81845 3.76228 7.81845C1.6882 7.81845 0 6.06431 0 3.90922C0 1.75414 1.6882 0 3.76228 0C5.83754 0 7.52457 1.75414 7.52457 3.90922ZM20 3.90946C20 3.40339 19.6047 2.99266 19.1177 2.99266H11.8825C11.3955 2.99266 11.0002 3.40339 11.0002 3.90946C11.0002 4.41553 11.3955 4.82626 11.8825 4.82626H19.1177C19.6047 4.82626 20 4.41553 20 3.90946ZM14.2397 16.0908C14.2397 17.2349 15.135 18.1664 16.2373 18.1664C17.3397 18.1664 18.2349 17.2349 18.2349 16.0908C18.2349 14.9454 17.3397 14.0151 16.2373 14.0151C15.135 14.0151 14.2397 14.9454 14.2397 16.0908ZM12.4751 16.0908C12.4751 13.9345 14.1621 12.1815 16.2373 12.1815C18.3126 12.1815 19.9996 13.9345 19.9996 16.0908C19.9996 18.2459 18.3126 20 16.2373 20C14.1621 20 12.4751 18.2459 12.4751 16.0908ZM0.88316 15.1736H8.11714C8.60419 15.1736 8.99948 15.5843 8.99948 16.0904C8.99948 16.5965 8.60419 17.0072 8.11714 17.0072H0.88316C0.39611 17.0072 0.000823498 16.5965 0.000823498 16.0904C0.000823498 15.5843 0.39611 15.1736 0.88316 15.1736Z" fill="#808080"/>
</svg>
