<svg width="28" height="28" viewBox="0 0 28 28" fill="none" xmlns="http://www.w3.org/2000/svg">
<path d="M27.905 27.3755L24.5614 18.6099C24.5317 18.5323 24.4792 18.4655 24.4108 18.4184C24.3424 18.3713 24.2613 18.346 24.1782 18.346H17.8501C17.8887 18.2829 17.9272 18.2218 17.9659 18.1585C20.4008 14.1272 21.6261 10.6008 21.6085 7.67864C21.6089 5.66068 20.8075 3.72523 19.3809 2.29807C17.9542 0.870907 16.019 0.0689455 14.0011 0.0686036C11.9831 0.0682617 10.0476 0.869568 8.62048 2.29624C7.19332 3.72292 6.39136 5.6581 6.39101 7.67606C6.37344 10.6008 7.59875 14.1277 10.0337 18.1585C10.0723 18.2225 10.1108 18.2836 10.1495 18.346H3.82133C3.73825 18.346 3.65713 18.3713 3.58871 18.4184C3.52029 18.4655 3.46778 18.5323 3.43812 18.6099L0.0949985 27.3755C0.0711776 27.4376 0.0628362 27.5046 0.0706949 27.5706C0.0785536 27.6367 0.102376 27.6998 0.140104 27.7546C0.177832 27.8094 0.228331 27.8542 0.287237 27.8851C0.346144 27.916 0.411686 27.932 0.478202 27.9319H27.5218C27.5883 27.932 27.6539 27.916 27.7128 27.8851C27.7717 27.8542 27.8222 27.8094 27.8599 27.7546C27.8976 27.6998 27.9214 27.6367 27.9293 27.5706C27.9372 27.5046 27.9288 27.4376 27.905 27.3755ZM7.21156 7.67677C7.21171 6.7853 7.38746 5.90259 7.72875 5.07903C8.07004 4.25548 8.5702 3.50722 9.20068 2.87696C9.83115 2.2467 10.5796 1.7468 11.4033 1.40579C12.2269 1.06478 13.1097 0.889348 14.0012 0.889502C14.8926 0.889656 15.7754 1.0654 16.5989 1.40669C17.4225 1.74798 18.1707 2.24814 18.801 2.87862C19.4312 3.50909 19.9311 4.25753 20.2721 5.0812C20.6132 5.90487 20.7886 6.78764 20.7884 7.67911C20.8236 13.5052 15.3767 20.6909 14 22.414C12.6233 20.6916 7.17617 13.5078 7.21156 7.67677ZM13.6876 23.3281C13.7261 23.3734 13.774 23.4097 13.8279 23.4347C13.8819 23.4596 13.9406 23.4725 14 23.4725C14.0594 23.4725 14.1181 23.4596 14.1721 23.4347C14.226 23.4097 14.2739 23.3734 14.3124 23.3281C15.4014 22.0015 16.411 20.6116 17.3359 19.1658H23.8953L24.4203 20.5428L11.6021 25.1016L7.0332 19.1651H10.6637C11.5887 20.6112 12.5984 22.0013 13.6876 23.3281ZM11.5878 25.9765H11.5902L19.2371 23.2578L22.2031 27.1116H8.39844L11.5878 25.9765ZM4.10422 19.1651H5.99797L10.7891 25.3906L5.95086 27.1114H1.07351L4.10422 19.1651ZM23.2393 27.1116L20.0497 22.9674L24.7137 21.3087L26.927 27.1116H23.2393Z" fill="black"/>
</svg>
