<svg width="19" height="12" viewBox="0 0 19 12" fill="none" xmlns="http://www.w3.org/2000/svg">
<path fill-rule="evenodd" clip-rule="evenodd" d="M2.32789 5.98744C2.28971 5.93889 2.25378 5.89233 2.2201 5.848C2.25378 5.80367 2.28971 5.75711 2.32789 5.70856C2.65633 5.2908 3.14479 4.73264 3.77993 4.17612C5.05734 3.05681 6.86068 2 9.11475 2C11.3688 2 13.1722 3.05681 14.4496 4.17612C15.0847 4.73264 15.5732 5.2908 15.9016 5.70856C15.9398 5.75711 15.9757 5.80367 16.0094 5.848C15.9757 5.89233 15.9398 5.93889 15.9016 5.98744C15.5732 6.4052 15.0847 6.96336 14.4496 7.51988C13.1722 8.63919 11.3688 9.696 9.11475 9.696C6.86068 9.696 5.05734 8.63919 3.77993 7.51988C3.14479 6.96336 2.65633 6.4052 2.32789 5.98744ZM18.0833 5.32737C18.0835 5.32773 18.0837 5.32807 17.2295 5.848C18.0837 6.36793 18.0835 6.36827 18.0833 6.36863L18.0828 6.36945L18.0816 6.37142L18.0783 6.37668L18.0686 6.39242C18.0606 6.40519 18.0496 6.42248 18.0358 6.44398C18.0081 6.48698 17.9687 6.54689 17.9177 6.6213C17.8159 6.77001 17.6675 6.97727 17.4739 7.22356C17.0877 7.7148 16.5157 8.36864 15.7676 9.02412C14.2786 10.3288 12.0246 11.696 9.11475 11.696C6.20489 11.696 3.95086 10.3288 2.46187 9.02412C1.71381 8.36864 1.14183 7.7148 0.755617 7.22356C0.56199 6.97727 0.413608 6.77001 0.311779 6.6213C0.260828 6.54689 0.221421 6.48698 0.193725 6.44398C0.179873 6.42248 0.16894 6.40519 0.160947 6.39242L0.15116 6.37668L0.147923 6.37142L0.146718 6.36945L0.14622 6.36863C0.146 6.36827 0.145791 6.36793 1 5.848C0.145791 5.32807 0.146 5.32773 0.14622 5.32737L0.146718 5.32655L0.147923 5.32458L0.15116 5.31932L0.160947 5.30358C0.16894 5.2908 0.179873 5.27352 0.193725 5.25201C0.221421 5.20902 0.260828 5.14911 0.311779 5.0747C0.413608 4.92599 0.56199 4.71873 0.755617 4.47244C1.14183 3.9812 1.71381 3.32736 2.46187 2.67188C3.95086 1.36719 6.20489 0 9.11475 0C12.0246 0 14.2786 1.36719 15.7676 2.67188C16.5157 3.32736 17.0877 3.9812 17.4739 4.47244C17.6675 4.71873 17.8159 4.92599 17.9177 5.0747C17.9687 5.14911 18.0081 5.20902 18.0358 5.25201C18.0496 5.27352 18.0606 5.2908 18.0686 5.30358L18.0783 5.31932L18.0816 5.32458L18.0828 5.32655L18.0833 5.32737ZM17.2295 5.848L18.0837 5.32807C18.2781 5.64744 18.2781 6.04856 18.0837 6.36793L17.2295 5.848ZM0.145791 5.32807L1 5.848L0.145791 6.36793C-0.0485969 6.04856 -0.0485969 5.64744 0.145791 5.32807ZM9.11472 3.03C7.53309 3.03 5.9016 4.11671 5.9016 5.848C5.9016 7.57929 7.53309 8.666 9.11472 8.666C10.6963 8.666 12.3278 7.57929 12.3278 5.848C12.3278 4.11671 10.6963 3.03 9.11472 3.03ZM7.9016 5.848C7.9016 5.57118 8.25179 5.03 9.11472 5.03C9.97764 5.03 10.3278 5.57118 10.3278 5.848C10.3278 6.12482 9.97764 6.666 9.11472 6.666C8.25179 6.666 7.9016 6.12482 7.9016 5.848Z" fill="#A8A8A8"/>
</svg>
